<svg xmlns="http://www.w3.org/2000/svg" xmlns:xlink="http://www.w3.org/1999/xlink" viewBox="0,0,256,256" width="50px" height="50px" fill-rule="nonzero"><g fill="#bb0000" fill-rule="nonzero" stroke="none" stroke-width="1" stroke-linecap="butt" stroke-linejoin="miter" stroke-miterlimit="10" stroke-dasharray="" stroke-dashoffset="0" font-family="none" font-weight="none" font-size="none" text-anchor="none" style="mix-blend-mode: normal"><g transform="scale(5.12,5.12)"><path d="M21.27,27.6c-1.08,0 -1.95,0.98 -1.95,2.17c0,1.2 0.87,2.18 1.95,2.18c1.08,0 1.95,-0.98 1.95,-2.18c0,-1.19 -0.87,-2.17 -1.95,-2.17zM30.48,27.66c-0.96,0 -1.74,0.88 -1.74,1.97c0,1.08 0.78,1.96 1.74,1.96c0.96,0 1.74,-0.88 1.74,-1.96c0,-1.09 -0.78,-1.97 -1.74,-1.97zM30.48,27.66c-0.96,0 -1.74,0.88 -1.74,1.97c0,1.08 0.78,1.96 1.74,1.96c0.96,0 1.74,-0.88 1.74,-1.96c0,-1.09 -0.78,-1.97 -1.74,-1.97zM21.27,27.6c-1.08,0 -1.95,0.98 -1.95,2.17c0,1.2 0.87,2.18 1.95,2.18c1.08,0 1.95,-0.98 1.95,-2.18c0,-1.19 -0.87,-2.17 -1.95,-2.17zM21.27,27.6c-1.08,0 -1.95,0.98 -1.95,2.17c0,1.2 0.87,2.18 1.95,2.18c1.08,0 1.95,-0.98 1.95,-2.18c0,-1.19 -0.87,-2.17 -1.95,-2.17zM30.48,27.66c-0.96,0 -1.74,0.88 -1.74,1.97c0,1.08 0.78,1.96 1.74,1.96c0.96,0 1.74,-0.88 1.74,-1.96c0,-1.09 -0.78,-1.97 -1.74,-1.97zM34.13,16.77h-0.04l-1.57,0.07v1.36h1.6c0.4,0 0.72,-0.32 0.72,-0.72c0,-0.39 -0.32,-0.71 -0.71,-0.71zM34.37,20.49c-0.01,0 -0.01,0 -0.02,0l-1.83,0.07v1.32h1.85c0.39,0 0.7,-0.31 0.7,-0.69c0,-0.39 -0.32,-0.7 -0.7,-0.7zM30.48,27.66c-0.96,0 -1.74,0.88 -1.74,1.97c0,1.08 0.78,1.96 1.74,1.96c0.96,0 1.74,-0.88 1.74,-1.96c0,-1.09 -0.78,-1.97 -1.74,-1.97zM21.27,27.6c-1.08,0 -1.95,0.98 -1.95,2.17c0,1.2 0.87,2.18 1.95,2.18c1.08,0 1.95,-0.98 1.95,-2.18c0,-1.19 -0.87,-2.17 -1.95,-2.17zM34.37,20.49c-0.01,0 -0.01,0 -0.02,0l-1.83,0.07v1.32h1.85c0.39,0 0.7,-0.31 0.7,-0.69c0,-0.39 -0.32,-0.7 -0.7,-0.7zM34.84,17.48c0,-0.39 -0.32,-0.71 -0.71,-0.71h-0.04l-1.57,0.07v1.36h1.6c0.4,0 0.72,-0.32 0.72,-0.72zM42,21l2,-18l-39,6l3,12h-6l7,23l16,-3v6l21,-8l2,-18zM30.15,14.99l4.82,-0.4c0.08,-0.01 0.15,-0.01 0.23,-0.01c1.39,0 2.55,1.15 2.55,2.58c0,0.59 -0.24,1.13 -0.63,1.52c-0.36,0.36 -0.86,0.6 -1.41,0.62c0.56,0 1.07,0.23 1.44,0.6c0.94,0.95 0.97,2.88 -1.42,3.95h-5.58zM23.2,15.43l6.02,-0.43v2.21l-3.77,0.21v0.96l3.33,-0.11v2.34h-3.39v1.01l3.83,0.05v2.18l-6.02,-0.29zM13.82,16.1l1.05,4.26l1.08,-4.41l2.06,-0.15l1.15,4.6l1.23,-4.77l2.23,-0.16l-2.19,7.86h-2.4l-1.1,-3.75l-1.08,3.75h-2.37l-1.8,-7.04zM16.41,27.63h-2.46v6.82l-2.64,0.15v-7.12h-2.77v-2.37l7.87,0.15zM21.15,34.28c-2.52,0 -4.57,-2.04 -4.57,-4.54c0,-2.51 2.05,-4.54 4.57,-4.54c2.52,0 4.56,2.03 4.56,4.54c0,2.5 -2.04,4.54 -4.56,4.54zM30.43,33.73c-2.21,0 -4,-1.86 -4,-4.15c0,-2.3 1.79,-4.15 4,-4.15c2.2,0 3.98,1.85 3.98,4.15c0,2.29 -1.78,4.15 -3.98,4.15zM41.83,32.9l-1.95,0.11l-2.41,-3.58v3.72l-2.37,0.07v-7.58l2.18,0.01l2.43,3.78v-3.69h2.29zM34.37,20.49c-0.01,0 -0.01,0 -0.02,0l-1.83,0.07v1.32h1.85c0.39,0 0.7,-0.31 0.7,-0.69c0,-0.39 -0.32,-0.7 -0.7,-0.7zM34.84,17.48c0,-0.39 -0.32,-0.71 -0.71,-0.71h-0.04l-1.57,0.07v1.36h1.6c0.4,0 0.72,-0.32 0.72,-0.72zM30.48,27.66c-0.96,0 -1.74,0.88 -1.74,1.97c0,1.08 0.78,1.96 1.74,1.96c0.96,0 1.74,-0.88 1.74,-1.96c0,-1.09 -0.78,-1.97 -1.74,-1.97zM21.27,27.6c-1.08,0 -1.95,0.98 -1.95,2.17c0,1.2 0.87,2.18 1.95,2.18c1.08,0 1.95,-0.98 1.95,-2.18c0,-1.19 -0.87,-2.17 -1.95,-2.17zM34.13,16.77h-0.04l-1.57,0.07v1.36h1.6c0.4,0 0.72,-0.32 0.72,-0.72c0,-0.39 -0.32,-0.71 -0.71,-0.71zM34.37,20.49c-0.01,0 -0.01,0 -0.02,0l-1.83,0.07v1.32h1.85c0.39,0 0.7,-0.31 0.7,-0.69c0,-0.39 -0.32,-0.7 -0.7,-0.7zM21.27,27.6c-1.08,0 -1.95,0.98 -1.95,2.17c0,1.2 0.87,2.18 1.95,2.18c1.08,0 1.95,-0.98 1.95,-2.18c0,-1.19 -0.87,-2.17 -1.95,-2.17zM30.48,27.66c-0.96,0 -1.74,0.88 -1.74,1.97c0,1.08 0.78,1.96 1.74,1.96c0.96,0 1.74,-0.88 1.74,-1.96c0,-1.09 -0.78,-1.97 -1.74,-1.97zM34.37,20.49c-0.01,0 -0.01,0 -0.02,0l-1.83,0.07v1.32h1.85c0.39,0 0.7,-0.31 0.7,-0.69c0,-0.39 -0.32,-0.7 -0.7,-0.7zM34.13,16.77h-0.04l-1.57,0.07v1.36h1.6c0.4,0 0.72,-0.32 0.72,-0.72c0,-0.39 -0.32,-0.71 -0.71,-0.71zM30.48,27.66c-0.96,0 -1.74,0.88 -1.74,1.97c0,1.08 0.78,1.96 1.74,1.96c0.96,0 1.74,-0.88 1.74,-1.96c0,-1.09 -0.78,-1.97 -1.74,-1.97zM21.27,27.6c-1.08,0 -1.95,0.98 -1.95,2.17c0,1.2 0.87,2.18 1.95,2.18c1.08,0 1.95,-0.98 1.95,-2.18c0,-1.19 -0.87,-2.17 -1.95,-2.17zM21.27,27.6c-1.08,0 -1.95,0.98 -1.95,2.17c0,1.2 0.87,2.18 1.95,2.18c1.08,0 1.95,-0.98 1.95,-2.18c0,-1.19 -0.87,-2.17 -1.95,-2.17zM21.27,27.6c-1.08,0 -1.95,0.98 -1.95,2.17c0,1.2 0.87,2.18 1.95,2.18c1.08,0 1.95,-0.98 1.95,-2.18c0,-1.19 -0.87,-2.17 -1.95,-2.17zM34.37,20.49c-0.01,0 -0.01,0 -0.02,0l-1.83,0.07v1.32h1.85c0.39,0 0.7,-0.31 0.7,-0.69c0,-0.39 -0.32,-0.7 -0.7,-0.7zM34.13,16.77h-0.04l-1.57,0.07v1.36h1.6c0.4,0 0.72,-0.32 0.72,-0.72c0,-0.39 -0.32,-0.71 -0.71,-0.71zM34.13,16.77h-0.04l-1.57,0.07v1.36h1.6c0.4,0 0.72,-0.32 0.72,-0.72c0,-0.39 -0.32,-0.71 -0.71,-0.71zM34.37,20.49c-0.01,0 -0.01,0 -0.02,0l-1.83,0.07v1.32h1.85c0.39,0 0.7,-0.31 0.7,-0.69c0,-0.39 -0.32,-0.7 -0.7,-0.7zM30.48,27.66c-0.96,0 -1.74,0.88 -1.74,1.97c0,1.08 0.78,1.96 1.74,1.96c0.96,0 1.74,-0.88 1.74,-1.96c0,-1.09 -0.78,-1.97 -1.74,-1.97zM30.48,27.66c-0.96,0 -1.74,0.88 -1.74,1.97c0,1.08 0.78,1.96 1.74,1.96c0.96,0 1.74,-0.88 1.74,-1.96c0,-1.09 -0.78,-1.97 -1.74,-1.97zM21.27,27.6c-1.08,0 -1.95,0.98 -1.95,2.17c0,1.2 0.87,2.18 1.95,2.18c1.08,0 1.95,-0.98 1.95,-2.18c0,-1.19 -0.87,-2.17 -1.95,-2.17zM21.27,27.6c-1.08,0 -1.95,0.98 -1.95,2.17c0,1.2 0.87,2.18 1.95,2.18c1.08,0 1.95,-0.98 1.95,-2.18c0,-1.19 -0.87,-2.17 -1.95,-2.17z"></path></g></g></svg>